<svg version="1.1" xmlns="http://www.w3.org/2000/svg" xmlns:xlink="http://www.w3.org/1999/xlink" x="0px" y="0px"
     viewBox="0 0 1000 1000" enable-background="new 0 0 1000 1000" xml:space="preserve">
    <g>
        <g transform="translate(0.000000,511.000000) scale(0.100000,-0.100000)">
            <path d="M4355.9,4977.1c-1090.4-151.8-2042.8-625.7-2818.1-1403.3C594.6,2632.9,100,1441.3,100,111.6s494.6-2519,1437.8-3462.2c934-936.3,2141.7-1437.8,3462.2-1437.8c1320.5,0,2525.9,501.5,3462.2,1437.8C9398.5-2414.3,9900-1208.9,9900,111.6c0,1074.3-333.6,2077.3-973.1,2933.1c-798.3,1067.4-1973.8,1755.3-3305.8,1934.7C5322.1,5018.5,4650.3,5018.5,4355.9,4977.1z M5319.8,4022.4c2358-209.3,4000.5-2406.3,3522-4711.3c-241.6-1159.5-1003-2150.9-2075-2698.4c-1262.9-641.8-2762.9-549.8-3952.2,243.8c-1628.7,1088.1-2203.8,3246-1332,4989.7C2145.1,3173.5,3451.8,3999.4,4954,4043.1C5011.5,4043.1,5174.8,4033.9,5319.8,4022.4z"/><path
            d="M3187.2,2011.8c-455.5-172.5-715.4-644.1-616.5-1115.7c115-552.1,657.9-890.3,1198.5-750c487.7,128.8,805.2,605,727,1092.7c-52.9,324.4-306,648.7-593.5,761.5C3697.9,2078.5,3378.2,2085.4,3187.2,2011.8z"/><path
            d="M6152.5,2021c-347.4-126.5-593.5-425.6-648.7-789.1c-57.5-372.7,138-789.1,455.5-975.4c609.6-356.6,1357.3-9.2,1479.2,685.5c55.2,315.2-57.5,630.3-308.3,867.3c-197.8,184-342.8,241.5-634.9,250.8C6320.5,2067,6251.5,2057.8,6152.5,2021z"/><path
            d="M2761.7-866.1c-237-103.5-437.1-195.5-444-202.4c-9.2-6.9,29.9-94.3,82.8-193.3c347.4-646.4,931.7-1152.5,1610.3-1398.7c724.6-259.9,1601.1-211.6,2282.1,128.8c398,197.9,832.8,563.6,1081.2,911c144.9,202.4,329,531.4,308.3,552.1c-11.5,11.5-391.1,181.7-731.5,329l-154.1,66.7l-62.1-119.6c-269.2-522.2-763.8-894.9-1348.1-1016.8c-204.7-43.7-568.2-43.7-772.9,0c-517.6,108.1-959.3,407.2-1249.2,848.9c-73.6,112.7-135.7,218.5-135.7,234.6c0,16.1-6.9,34.5-16.1,39.1C3201-679.8,3000.9-760.3,2761.7-866.1z"/>
        </g>
    </g>
</svg>